Coordinates
version=1
nRows=5
nColumns=40
inDegrees=yes

Units are S.I. units (second, meters, Newtons, ...)
If the header above contains a line with 'inDegrees', this indicates whether rotational values are in degrees (yes) or radians (no).

endheader
time	pelvis_tilt	pelvis_list	pelvis_rotation	pelvis_tx	pelvis_ty	pelvis_tz	hip_flexion_r	hip_adduction_r	hip_rotation_r	knee_angle_r	knee_angle_r_beta	ankle_angle_r	subtalar_angle_r	mtp_angle_r	hip_flexion_l	hip_adduction_l	hip_rotation_l	knee_angle_l	knee_angle_l_beta	ankle_angle_l	subtalar_angle_l	mtp_angle_l	lumbar_extension	lumbar_bending	lumbar_rotation	arm_flex_r	arm_add_r	arm_rot_r	elbow_flex_r	pro_sup_r	wrist_flex_r	wrist_dev_r	arm_flex_l	arm_add_l	arm_rot_l	elbow_flex_l	pro_sup_l	wrist_flex_l	wrist_dev_l
      1.60000000	     10.64039866	     -5.38039808	     -3.03117184	     -0.23381801	      1.06648439	     -1.01806194	     -2.28920446	     -2.41390906	     -4.04677440	     18.55451070	      0.32383730	     -5.88931822	      0.00000000	      0.00000000	     -9.18862900	     -2.10155062	    -12.33189194	     11.87677816	      0.20728888	     -2.78985416	      0.00000000	      0.00000000	    -10.39076027	      2.36035856	      5.47124722	     77.42964236	    -25.11518011	     47.91546570	     41.66611491	     86.56749872	      0.00000000	      0.00000000	     84.92404739	    -19.92529267	     61.03830325	     43.98766249	     81.31216744	      0.00000000	      0.00000000
      1.60500000	     10.76623931	     -5.39103194	     -3.03768213	     -0.23407033	      1.06655718	     -1.01859757	     -2.19306178	     -2.42907986	     -4.08262647	     18.82639350	      0.32858255	     -5.35558315	      0.00000000	      0.00000000	     -9.31471927	     -2.06552960	    -12.46604682	     11.87154399	      0.20719753	     -2.83591545	      0.00000000	      0.00000000	    -10.54086339	      2.35546719	      5.45804528	     77.45050098	    -25.09637881	     47.92426941	     41.67537616	     86.51629595	      0.00000000	      0.00000000	     84.91976541	    -19.98548201	     60.86119162	     43.99634959	     82.86538252	      0.00000000	      0.00000000
      1.61000000	     10.76365471	     -5.39670509	     -2.99816365	     -0.23461175	      1.06656036	     -1.01917806	     -1.94327668	     -2.44432687	     -4.24119536	     19.05077470	      0.33249874	     -5.16532012	      0.00000000	      0.00000000	     -9.20856768	     -2.06481152	    -12.48973729	     11.99473725	      0.20934766	     -2.82709378	      0.00000000	      0.00000000	    -10.58185102	      2.32678584	      5.43145534	     77.40105832	    -25.16072851	     47.81241201	     41.80803244	     86.54440883	      0.00000000	      0.00000000	     84.93715495	    -19.94184947	     60.83499908	     43.96577741	     82.44176195	      0.00000000	      0.00000000
      1.61500000	     10.86387712	     -5.45383135	     -2.96257509	     -0.23466515	      1.06660688	     -1.01956004	     -1.92375081	     -2.36949242	     -4.26593812	     19.06115667	      0.33267994	     -4.86384054	      0.00000000	      0.00000000	     -9.33560955	     -2.09583451	    -12.46681422	     11.94273612	      0.20844007	     -2.83685651	      0.00000000	      0.00000000	    -10.66220205	      2.36208661	      5.37437108	     77.29872651	    -25.06288875	     47.55452898	     41.75317878	     86.73235522	      0.00000000	      0.00000000	     84.93213017	    -20.02602178	     60.99159914	     44.01574303	     80.42811979	      0.00000000	      0.00000000
      1.62000000	     10.93289261	     -5.46573652	     -2.98826017	     -0.23495219	      1.06666013	     -1.02002062	     -1.81260945	     -2.37492847	     -4.33276831	     19.13200247	      0.33391644	     -4.57157193	      0.00000000	      0.00000000	     -9.38123606	     -2.07574766	    -12.55066379	     12.00355585	      0.20950157	     -2.74642005	      0.00000000	      0.00000000	    -10.75583246	      2.35081187	      5.38846365	     77.34535511	    -25.11801418	     47.81006324	     41.82188814	     86.52557924	      0.00000000	      0.00000000	     84.95015576	    -20.06078297	     60.92427908	     43.96326422	     82.60140326	      0.00000000	      0.00000000
